<svg xmlns="http://www.w3.org/2000/svg" version="1.1" xmlns:xlink="http://www.w3.org/1999/xlink" xmlns:svgjs="http://svgjs.dev/svgjs" width="1000" height="1000" viewBox="0 0 1000 1000"><rect width="1000" height="1000" fill="#ffffff"></rect><g transform="matrix(0.7,0,0,0.7,149.57575757575756,282.1265587044535)"><svg viewBox="0 0 396 247" data-background-color="#010536" preserveAspectRatio="xMidYMid meet" height="623" width="1000" xmlns="http://www.w3.org/2000/svg" xmlns:xlink="http://www.w3.org/1999/xlink"><g id="tight-bounds" transform="matrix(1,0,0,1,0.2400000000000091,-0.09999999999999432)"><svg viewBox="0 0 395.52 247.2" height="247.2" width="395.52"><g><svg></svg></g><g><svg viewBox="0 0 395.52 247.2" height="247.2" width="395.52"><mask id="2e25bf8a-e5c5-4386-a30b-24dffc5954bb"><rect width="640" height="400" fill="white"></rect><g transform="matrix(1,0,0,1,39.55199999999999,41.51420378437098)"><svg viewBox="0 0 316.416 164.17159243125803" height="164.17159243125803" width="316.416"><g><svg viewBox="0 0 316.416 164.17159243125803" height="164.17159243125803" width="316.416"><g><svg viewBox="0 0 316.416 164.17159243125803" height="164.17159243125803" width="316.416"><g><svg viewBox="0 0 316.416 164.17159243125803" height="164.17159243125803" width="316.416"><g id="SvgjsG3078"><svg viewBox="0 0 316.416 164.17159243125803" height="164.17159243125803" width="316.416" id="SvgjsSvg3077"><g><svg viewBox="0 0 316.416 96.12876099881095" height="96.12876099881095" width="316.416"><g transform="matrix(1,0,0,1,0,0)"><svg width="316.416" viewBox="-1.2799999999999998 -34.96 135.55 41.88" height="96.12876099881095" data-palette-color="#fbfbf8"><path d="M22.56-18.72L22.56-18.72Q22.56-26.04 19.24-26.04L19.24-26.04Q19.24-26.32 19.52-26.56L19.52-26.56Q20.04-27 20.8-27L20.8-27Q23.48-27 24.32-22.84L24.32-22.84Q24.68-21.16 24.68-19.28L24.68-19.28Q24.68-15.72 23.44-11.36L23.44-11.36Q21.36-3.88 17.16-0.2L17.16-0.2Q14.28 2.32 10.96 2.32L10.96 2.32Q5.56 2.32 3.64-3.16L3.64-3.16Q2.72-5.72 2.72-8.84 2.72-11.96 3.6-15.6L3.6-15.6Q5.4-22.84 9.48-27.2L9.48-27.2Q13-30.96 17.04-30.96L17.04-30.96Q18.16-30.96 18.76-30.46 19.36-29.96 19.36-29.44L19.36-29.44 19.4-28.96Q19-29.12 17.92-29.12L17.92-29.12Q13.6-29.12 10.26-23.6 6.92-18.08 6.16-11.16L6.16-11.16Q5.96-9.4 5.96-7.92L5.96-7.92Q5.96-3.36 7.76-0.92L7.76-0.92Q9.2 0.96 11.52 0.96L11.52 0.96Q16.36 0.96 19.46-5.66 22.56-12.28 22.56-18.72ZM49.04-18.12L49.04-18.12Q50.2-17.24 51.26-17.24 52.32-17.24 52.76-17.52L52.76-17.52Q52.76-17 52.3-16.54 51.84-16.08 50.98-16.08 50.12-16.08 49.12-16.48L49.12-16.48Q49.04-12.72 47.88-8.78 46.72-4.84 44.88-2.18 43.04 0.48 41.24 0.48 39.44 0.48 38.48-0.92L38.48-0.92Q37.48-2.48 37.48-5.36L37.48-5.36Q37.48-7 37.68-8.88L37.68-8.88Q32.72 0 30.06 0 27.4 0 27.4-4.48L27.4-4.48Q27.4-9.12 29.68-14.4L29.68-14.4Q31.6-18.6 33.2-18.8L33.2-18.8Q33.96-18.8 33.96-17.96L33.96-17.96Q33.48-16.8 32.76-14.98 32.04-13.16 30.86-9.16 29.68-5.16 29.68-3.26 29.68-1.36 30.52-1.36L30.52-1.36Q31.56-1.36 33.78-4.72 36-8.08 37.68-11.44L37.68-11.44 39.4-14.76Q40.52-17 41.4-17 42.28-17 42.28-16.16L42.28-16.16Q39.84-7.8 39.84-3.08L39.84-3.08Q39.84-0.88 41.12-0.88L41.12-0.88Q42.56-0.88 44.14-3.26 45.72-5.64 46.78-9.46 47.84-13.28 47.84-17L47.84-17 47.84-17.24Q46.68-18.08 45.96-19.24 45.24-20.4 45.24-20.98 45.24-21.56 45.76-22.04 46.28-22.52 46.88-22.52L46.88-22.52Q47.64-22.52 48.24-21.18 48.84-19.84 49.04-18.12ZM55.23-6.48L55.59-6.48Q60.76-19.24 65.64-19.24L65.64-19.24Q67.67-19.24 67.67-17.28L67.67-17.28Q67.39-16.36 66.95-14.86 66.52-13.36 65.78-9.48 65.03-5.6 65.03-2.68L65.03-2.68Q65.03 1.56 66.28 1.56L66.28 1.56Q66.75 1.56 67.19 1.18 67.64 0.8 67.8 0.8L67.8 0.8Q68.36 0.8 67.8 1.68L67.8 1.68Q67.59 1.96 67.06 2.44 66.52 2.92 65.95 2.92L65.95 2.92Q64.44 2.92 63.58 0.74 62.72-1.44 62.72-4.92L62.72-4.92Q62.72-10.44 64.44-17.04L64.44-17.04Q64.59-17.56 64.11-17.56L64.11-17.56Q63.8-17.56 63.4-17.24L63.4-17.24Q61.48-15.56 59.36-11.68 57.23-7.8 56.04-4.74 54.84-1.68 54.84-1.18 54.84-0.68 54.27-0.68L54.27-0.68Q52.99-0.68 52.99-3.84L52.99-3.84Q52.99-9.8 54.22-14.64 55.44-19.48 57.16-19.48L57.16-19.48Q57.88-19.48 57.88-18.6L57.88-18.6Q56.04-12.64 55.23-6.48L55.23-6.48ZM73.15-6.48L73.51-6.48Q78.67-19.24 83.55-19.24L83.55-19.24Q85.59-19.24 85.59-17.28L85.59-17.28Q85.31-16.36 84.87-14.86 84.43-13.36 83.69-9.48 82.95-5.6 82.95-2.68L82.95-2.68Q82.95 1.56 84.19 1.56L84.19 1.56Q84.67 1.56 85.11 1.18 85.55 0.8 85.71 0.8L85.71 0.8Q86.27 0.8 85.71 1.68L85.71 1.68Q85.51 1.96 84.97 2.44 84.43 2.92 83.87 2.92L83.87 2.92Q82.35 2.92 81.49 0.74 80.63-1.44 80.63-4.92L80.63-4.92Q80.63-10.44 82.35-17.04L82.35-17.04Q82.51-17.56 82.03-17.56L82.03-17.56Q81.71-17.56 81.31-17.24L81.31-17.24Q79.39-15.56 77.27-11.68 75.15-7.8 73.95-4.74 72.75-1.68 72.75-1.18 72.75-0.68 72.19-0.68L72.19-0.68Q70.91-0.68 70.91-3.84L70.91-3.84Q70.91-9.8 72.13-14.64 73.35-19.48 75.07-19.48L75.07-19.48Q75.79-19.48 75.79-18.6L75.79-18.6Q73.95-12.64 73.15-6.48L73.15-6.48ZM93.23 0.36L93.23 0.36Q88.31 0.36 88.31-6.4L88.31-6.4Q88.31-10.2 90.23-14L90.23-14Q92.67-18.8 96.03-18.8L96.03-18.8Q96.51-18.8 96.83-18.56 97.15-18.32 97.27-17.84L97.27-17.84Q94.75-17.84 92.91-13.8 91.07-9.76 91.07-5.84L91.07-5.84Q91.07-1.08 93.67-1.08L93.67-1.08Q95.15-1.08 96.75-3.34 98.35-5.6 99.41-9.28 100.47-12.96 100.47-16.68L100.47-16.68 100.47-17.16Q99.23-17.96 98.43-19.16 97.63-20.36 97.63-20.92 97.63-21.48 98.13-21.98 98.63-22.48 99.15-22.48L99.15-22.48Q99.91-22.48 100.63-21.12 101.35-19.76 101.63-18.04L101.63-18.04Q102.87-17.2 103.81-17.2 104.75-17.2 105.31-17.52L105.31-17.52Q105.31-16.96 104.91-16.52 104.51-16.08 103.67-16.08 102.83-16.08 101.75-16.48L101.75-16.48Q101.71-12.64 100.59-8.76 99.47-4.88 97.47-2.26 95.47 0.36 93.23 0.36ZM126.55-18.12L126.55-18.12Q127.71-17.24 128.77-17.24 129.83-17.24 130.27-17.52L130.27-17.52Q130.27-17 129.81-16.54 129.35-16.08 128.49-16.08 127.63-16.08 126.63-16.48L126.63-16.48Q126.55-12.72 125.39-8.78 124.23-4.84 122.39-2.18 120.55 0.48 118.75 0.48 116.95 0.48 115.99-0.92L115.99-0.92Q114.99-2.48 114.99-5.36L114.99-5.36Q114.99-7 115.19-8.88L115.19-8.88Q110.23 0 107.57 0 104.91 0 104.91-4.48L104.91-4.48Q104.91-9.12 107.19-14.4L107.19-14.4Q109.11-18.6 110.71-18.8L110.71-18.8Q111.47-18.8 111.47-17.96L111.47-17.96Q110.99-16.8 110.27-14.98 109.55-13.16 108.37-9.16 107.19-5.16 107.19-3.26 107.19-1.36 108.03-1.36L108.03-1.36Q109.07-1.36 111.29-4.72 113.51-8.08 115.19-11.44L115.19-11.44 116.91-14.76Q118.03-17 118.91-17 119.79-17 119.79-16.16L119.79-16.16Q117.35-7.8 117.35-3.08L117.35-3.08Q117.35-0.88 118.63-0.88L118.63-0.88Q120.07-0.88 121.65-3.26 123.23-5.64 124.29-9.46 125.35-13.28 125.35-17L125.35-17 125.35-17.24Q124.19-18.08 123.47-19.24 122.75-20.4 122.75-20.98 122.75-21.56 123.27-22.04 123.79-22.52 124.39-22.52L124.39-22.52Q125.15-22.52 125.75-21.18 126.35-19.84 126.55-18.12Z" opacity="1" transform="matrix(1,0,0,1,0,0)" fill="black" class="wordmark-text-0" id="SvgjsPath3076" stroke-width="7" stroke="black" stroke-linejoin="round"></path></svg></g></svg></g><g transform="matrix(1,0,0,1,3.5,114.936547979415)"><svg viewBox="0 0 309.416 49.23504445184305" height="49.23504445184305" width="309.416"><g transform="matrix(1,0,0,1,0,0)"><svg width="309.416" viewBox="-4.3 -41.95 384.64 61.800000000000004" height="49.23504445184305" data-palette-color="#fbfbf8"><path d="M23.55-13.65L23.55-13.65Q19.2-8.8 14.85-5.5L14.85-5.5Q12.7-3.9 9.9-2.55 7.1-1.2 4.85-1.2L4.85-1.2Q-0.3-1.2-0.3-6.05L-0.3-6.05Q-0.3-10.6 1.9-15.33 4.1-20.05 7.53-23.75 10.95-27.45 14.9-30.43 18.85-33.4 22.53-35 26.2-36.6 28.7-36.6L28.7-36.6Q31.95-36.6 32.1-33.75L32.1-33.75Q33.85-34.5 34.75-34.5L34.75-34.5Q35.35-34.35 35.35-33.95 35.35-33.55 35.1-33.2 34.85-32.85 34.25-32.85 33.65-32.85 31.95-32.25L31.95-32.25Q31.25-28.25 27.25-24.7 23.25-21.15 20.7-21.15L20.7-21.15Q19.4-21.15 19.4-22.35L19.4-22.35Q19.4-24.65 23.05-27.88 26.7-31.1 30.8-33.15L30.8-33.15 30.8-33.2Q30.8-35.45 28.15-35.45L28.15-35.45Q26-35.45 22.7-33.98 19.4-32.5 15.83-29.73 12.25-26.95 9.13-23.48 6-20 3.98-15.48 1.95-10.95 1.95-6.5L1.95-6.5Q1.95-2.65 5.6-2.65L5.6-2.65Q13.55-2.65 27.4-19.2L27.4-19.2Q28.25-20.2 28.9-20.2 29.55-20.2 29.55-20.08 29.55-19.95 29.25-19.38 28.95-18.8 25.83-13.8 22.7-8.8 19.1-3.05L19.1-3.05Q9.8 11.95 9 13.15L9 13.15Q8.85 13.45 8.85 13.65 8.85 13.85 9.3 13.85L9.3 13.85 10.55 13.75Q10.95 13.75 10.95 13.9L10.95 13.9Q10.95 14.15 9.5 15 8.05 15.85 7.45 15.85 6.85 15.85 6.85 15.1 6.85 14.35 7.38 12.88 7.9 11.4 12.03 4.93 16.15-1.55 19.93-7.33 23.7-13.1 23.7-13.38 23.7-13.65 23.55-13.65ZM22-22.5L22-22.5Q23.85-22.5 26.9-25.35 29.95-28.2 30.65-31.7L30.65-31.7Q27.2-30.1 24.23-27.55 21.25-25 21.25-23.2L21.25-23.2Q21.25-22.5 22-22.5ZM38.61-4.85L38.61-4.85Q35.61-4.85 35.61-6.15L35.61-6.15Q35.61-7.7 39.16-9.83 42.71-11.95 45.56-11.95L45.56-11.95Q47.01-11.95 47.01-11.05L47.01-11.05Q47.01-10.55 46.26-9.95 45.51-9.35 44.81-9 44.11-8.65 44.01-8.65L44.01-8.65Q43.71-8.65 43.61-8.9L43.61-8.9Q43.51-9.25 44.14-9.63 44.76-10 44.76-10.45 44.76-10.9 43.64-10.9 42.51-10.9 40.11-9.33 37.71-7.75 37.71-6.75L37.71-6.75Q37.71-6 39.46-6L39.46-6Q39.76-6 40.56-6.05 41.36-6.1 41.36-5.85 41.36-5.6 38.89-4.05 36.41-2.5 36.41-1.4L36.41-1.4Q36.41-0.15 38.04-0.15 39.66-0.15 41.71-1L41.71-1Q45.01-2.45 47.71-4.1L47.71-4.1 48.66-4.7Q48.71-4.6 48.71-4.3 48.71-4 48.26-3.8L48.26-3.8Q45.61-2 42.46-0.38 39.31 1.25 36.79 1.25 34.26 1.25 34.26-0.43 34.26-2.1 38.61-4.85ZM59.38-16.5L59.38-16.5Q62.78-16.5 66.08-16.55L66.08-16.55Q71.43-23.4 73.38-23.4L73.38-23.4Q74.08-23.4 74.08-22.65L74.08-22.65Q74.08-20.25 70.58-16.65L70.58-16.65 74.38-16.7Q78.18-16.85 79.03-16.85 79.88-16.85 79.88-16.65L79.88-16.65Q79.88-15.7 78.58-15.65L78.58-15.65 69.18-15.25Q66.73-12.95 63.13-10.4L63.13-10.4Q59.33-4.15 59.33-1.9L59.33-1.9Q59.33-0.75 60.8-0.75 62.28-0.75 65.48-2.35L65.48-2.35 69.53-4.7Q69.58-4.6 69.58-4.3 69.58-4 69.13-3.8L69.13-3.8Q67.53-2.7 65.63-1.6L65.63-1.6Q61.58 0.45 59.43 0.45L59.43 0.45Q58.43 0.45 57.88 0.05 57.33-0.35 57.28-0.75L57.28-0.75 57.18-1.15Q57.18-2.85 59.48-6.88 61.78-10.9 64.93-15.1L64.93-15.1Q62.53-15 60.38-15 58.23-15 58.23-15.5L58.23-15.5Q58.23-16.45 59.38-16.5ZM72.53-21.6L72.53-21.6Q72.53-21.85 72.33-21.85L72.33-21.85Q71.18-21.85 67.23-16.6L67.23-16.6 69.73-16.6Q72.53-19.65 72.53-21.6ZM68.33-15.2L68.33-15.2Q66.73-15.2 66.18-15.15L66.18-15.15Q65.73-14.5 64.93-13.25 64.13-12 63.83-11.55L63.83-11.55Q66.43-13.45 68.33-15.2ZM96.66 0.65L96.51-0.05Q96.51-2.65 100.48-5.3 104.46-7.95 110.28-9.58 116.11-11.2 121.51-11.2L121.51-11.2Q122.86-11.2 124.46-11.05L124.46-11.05Q135.46-21.35 135.46-32.3L135.46-32.3Q135.46-35.25 133.51-35.25L133.51-35.25Q132.31-35.25 130.76-34.02 129.21-32.8 127.78-30.8 126.36-28.8 125.38-25.85 124.41-22.9 124.41-19.63 124.41-16.35 125.31-15.8L125.31-15.8Q125.56-15.65 125.56-15.45L125.56-15.45Q125.16-14.6 124.43-14.6 123.71-14.6 123.28-15.03 122.86-15.45 122.86-16.25L122.86-16.25Q122.86-20.65 124.13-24.83 125.41-29 127.26-31.78 129.11-34.55 131.16-36.25 133.21-37.95 134.81-37.95L134.81-37.95Q137.51-37.95 137.51-33.7L137.51-33.7Q137.51-21.45 126.01-10.85L126.01-10.85Q131.36-9.9 131.36-7.1L131.36-7.1Q131.36-6.1 130.08-5.03 128.81-3.95 128.03-3.9 127.26-3.85 127.21-4.05L127.21-4.05Q127.21-4.2 127.76-4.55L127.76-4.55Q129.86-5.85 129.86-6.75L129.86-6.75Q129.86-8.8 124.21-9.25L124.21-9.25Q117.96-3.95 110.71-0.6 103.46 2.75 100.26 2.75L100.26 2.75Q98.66 2.75 97.73 2.05 96.81 1.35 96.66 0.65L96.66 0.65ZM121.16-9.4L121.16-9.4Q116.21-9.4 110.98-8.2 105.76-7 102.13-4.95 98.51-2.9 98.46-0.75L98.46-0.75Q98.61 1.1 101.26 1.1L101.26 1.1Q104.81 1.1 110.91-1.8 117.01-4.7 122.56-9.35L122.56-9.35Q122.06-9.4 121.16-9.4ZM143.32-16.5L143.32-16.5Q146.72-16.5 150.02-16.55L150.02-16.55Q155.37-23.4 157.32-23.4L157.32-23.4Q158.02-23.4 158.02-22.65L158.02-22.65Q158.02-20.25 154.52-16.65L154.52-16.65 158.32-16.7Q162.12-16.85 162.97-16.85 163.82-16.85 163.82-16.65L163.82-16.65Q163.82-15.7 162.52-15.65L162.52-15.65 153.12-15.25Q150.67-12.95 147.07-10.4L147.07-10.4Q143.27-4.15 143.27-1.9L143.27-1.9Q143.27-0.75 144.75-0.75 146.22-0.75 149.42-2.35L149.42-2.35 153.47-4.7Q153.52-4.6 153.52-4.3 153.52-4 153.07-3.8L153.07-3.8Q151.47-2.7 149.57-1.6L149.57-1.6Q145.52 0.45 143.37 0.45L143.37 0.45Q142.37 0.45 141.82 0.05 141.27-0.35 141.22-0.75L141.22-0.75 141.12-1.15Q141.12-2.85 143.42-6.88 145.72-10.9 148.87-15.1L148.87-15.1Q146.47-15 144.32-15 142.17-15 142.17-15.5L142.17-15.5Q142.17-16.45 143.32-16.5ZM156.47-21.6L156.47-21.6Q156.47-21.85 156.27-21.85L156.27-21.85Q155.12-21.85 151.17-16.6L151.17-16.6 153.67-16.6Q156.47-19.65 156.47-21.6ZM152.27-15.2L152.27-15.2Q150.67-15.2 150.12-15.15L150.12-15.15Q149.67-14.5 148.87-13.25 148.07-12 147.77-11.55L147.77-11.55Q150.37-13.45 152.27-15.2ZM166.39 0.7L166.39 0.7 166.04-0.85Q166.04-1.3 166.34-1.63 166.64-1.95 167.09-1.95 167.54-1.95 167.89-1.63 168.24-1.3 168.29-0.6L168.29-0.6Q168.14 0.75 167.49 1.8 166.84 2.85 166.04 3.4L166.04 3.4Q164.29 4.45 162.94 4.7L162.94 4.7 162.39 4.8Q162.14 4.8 162.14 4.5L162.14 4.5Q162.14 4.4 163.21 4.03 164.29 3.65 165.34 2.8 166.39 1.95 166.39 0.7ZM224.57-35.2L224.57-35.2Q224.82-35.2 224.92-34.9L224.92-34.9Q224.92-34.5 224.32-34.4L224.32-34.4Q221.52-33.45 218.34-30.95 215.17-28.45 212.34-24.93 209.52-21.4 207.64-16.6 205.77-11.8 205.77-6.9L205.77-6.9Q205.77-0.25 210.47-0.25L210.47-0.25Q213.22-0.25 216.89-2.68 220.57-5.1 223.79-8.78 227.02-12.45 229.27-17.4 231.52-22.35 231.52-26.93 231.52-31.5 228.37-31.5L228.37-31.5Q225.82-31.5 222.37-28.78 218.92-26.05 216.34-21.88 213.77-17.7 213.77-14.03 213.77-10.35 216.32-10.35L216.32-10.35Q217.92-10.35 219.94-11.88 221.97-13.4 223.57-15.95L223.57-15.95Q223.77-16.35 224.04-16.35 224.32-16.35 224.32-16.05L224.32-16.05Q224.32-14.65 220.84-11.65 217.37-8.65 214.87-8.65L214.87-8.65Q211.92-8.65 211.92-13.4L211.92-13.4Q211.92-17.1 215.02-21.83 218.12-26.55 222.32-29.8 226.52-33.05 229.57-33.05L229.57-33.05Q233.57-33.05 233.57-27.1L233.57-27.1Q233.57-22.6 230.97-17.43 228.37-12.25 224.64-8.22 220.92-4.2 216.67-1.5 212.42 1.2 209.22 1.2L209.22 1.2Q203.67 1.2 203.67-6.7L203.67-6.7Q203.67-11.5 205.57-16.18 207.47-20.85 210.19-24.15 212.92-27.45 215.94-30.05 218.97-32.65 221.29-33.93 223.62-35.2 224.57-35.2ZM237.73-8.6L237.73-8.6 236.18-7.95Q236.08-7.95 236.08-8.1L236.08-8.1Q236.08-8.55 237.21-9.2 238.33-9.85 239.06-9.85 239.78-9.85 239.78-8.85L239.78-8.85Q239.78-7.15 238.68-2.95L238.68-2.95Q238.73-2.9 238.78-2.9L238.78-2.9Q243.13-6.45 244.58-7.9 246.03-9.35 246.56-9.35 247.08-9.35 247.08-8.8 247.08-8.25 245.93-4.93 244.78-1.6 244.78-1.15L244.78-1.15 245.53-1.8Q247.78-3.85 249.88-6.05L249.88-6.05Q248.78-6.2 248.78-7.3L248.78-7.3Q248.78-9.1 250.81-10.98 252.83-12.85 254.13-12.85L254.13-12.85Q254.78-12.85 254.78-12.2L254.78-12.2Q254.78-10.6 251.53-6.9L251.53-6.9 251.88-6.9Q252.93-6.9 255.68-8.8L255.68-8.8 256.58-9.45Q256.68-9.45 256.68-9.2 256.68-8.95 256.43-8.75L256.43-8.75Q253.33-6.25 250.73-6L250.73-6Q248.38-3.45 245.78-1.28 243.18 0.9 242.61 0.9 242.03 0.9 242.03 0.4L242.03 0.4Q242.03 0.2 242.23-0.23 242.43-0.65 243.28-3.35 244.13-6.05 244.11-6.18 244.08-6.3 244.03-6.3L244.03-6.3Q243.88-6.3 243.63-6.05L243.63-6.05 237.18-0.7Q236.13 0.3 235.68 0.3L235.68 0.3Q235.23 0.15 235.23-0.03 235.23-0.2 235.63-0.98 236.03-1.75 236.96-4.48 237.88-7.2 237.88-7.9 237.88-8.6 237.73-8.6ZM253.08-11.05L253.08-11.05Q253.08-11.35 252.58-11.35 252.08-11.35 251.08-10.28 250.08-9.2 250.08-7.9L250.08-7.9Q250.08-7.25 250.83-7.05L250.83-7.05Q253.08-9.75 253.08-11.05ZM262.9-3.8L262.9-3.8Q263.85-4.35 265.4-5.55L265.4-5.55Q269.2-8.55 269.45-8.55L269.45-8.55Q270.2-8.55 270.2-7.9 270.2-7.25 269.42-5.9 268.65-4.55 267.67-3.1 266.7-1.65 266.55-1.35L266.55-1.35Q266.6-1.3 266.77-1.3 266.95-1.3 268.75-2.63 270.55-3.95 272.5-5.43 274.45-6.9 274.8-7.13 275.15-7.35 275.45-7.35L275.45-7.35Q276.05-7.3 276.05-6.65L276.05-6.65Q276.05-6.4 274.35-4.13 272.65-1.85 272.65-1.2L272.65-1.2Q272.65-0.75 273.72-0.75 274.8-0.75 276.9-1.73 279-2.7 280.6-3.7L280.6-3.7 282.2-4.7Q282.25-4.6 282.25-4.3 282.25-4 281.8-3.8L281.8-3.8Q275.05 0.8 272.4 0.8L272.4 0.8Q270.85 0.8 270.85-0.4L270.85-0.4Q270.85-1.55 271.52-2.6 272.2-3.65 272.7-4.38 273.2-5.1 273.2-5.15L273.2-5.15Q270.9-3.5 267.75-1.2 264.6 1.1 264.2 1.1L264.2 1.1Q263.9 1.1 263.9 0.4 263.9-0.3 265.87-3.25 267.85-6.2 267.85-6.4 267.85-6.6 267.75-6.6L267.75-6.6 267.25-6.35 264.75-4.35Q264.5-4.15 263.8-3.7 263.1-3.25 262.92-3.25 262.75-3.25 262.75-3.48 262.75-3.7 262.9-3.8ZM309.18 0.65L309.03-0.05Q309.03-2.65 313-5.3 316.98-7.95 322.8-9.58 328.63-11.2 334.03-11.2L334.03-11.2Q335.38-11.2 336.98-11.05L336.98-11.05Q347.98-21.35 347.98-32.3L347.98-32.3Q347.98-35.25 346.03-35.25L346.03-35.25Q344.83-35.25 343.28-34.02 341.73-32.8 340.3-30.8 338.88-28.8 337.9-25.85 336.93-22.9 336.93-19.63 336.93-16.35 337.83-15.8L337.83-15.8Q338.08-15.65 338.08-15.45L338.08-15.45Q337.68-14.6 336.95-14.6 336.23-14.6 335.8-15.03 335.38-15.45 335.38-16.25L335.38-16.25Q335.38-20.65 336.65-24.83 337.93-29 339.78-31.78 341.63-34.55 343.68-36.25 345.73-37.95 347.33-37.95L347.33-37.95Q350.03-37.95 350.03-33.7L350.03-33.7Q350.03-21.45 338.53-10.85L338.53-10.85Q343.88-9.9 343.88-7.1L343.88-7.1Q343.88-6.1 342.6-5.03 341.33-3.95 340.55-3.9 339.78-3.85 339.73-4.05L339.73-4.05Q339.73-4.2 340.28-4.55L340.28-4.55Q342.38-5.85 342.38-6.75L342.38-6.75Q342.38-8.8 336.73-9.25L336.73-9.25Q330.48-3.95 323.23-0.6 315.98 2.75 312.78 2.75L312.78 2.75Q311.18 2.75 310.25 2.05 309.33 1.35 309.18 0.65L309.18 0.65ZM333.68-9.4L333.68-9.4Q328.73-9.4 323.5-8.2 318.28-7 314.65-4.95 311.03-2.9 310.98-0.75L310.98-0.75Q311.13 1.1 313.78 1.1L313.78 1.1Q317.33 1.1 323.43-1.8 329.53-4.7 335.08-9.35L335.08-9.35Q334.58-9.4 333.68-9.4ZM355.84-16.5L355.84-16.5Q359.24-16.5 362.54-16.55L362.54-16.55Q367.89-23.4 369.84-23.4L369.84-23.4Q370.54-23.4 370.54-22.65L370.54-22.65Q370.54-20.25 367.04-16.65L367.04-16.65 370.84-16.7Q374.64-16.85 375.49-16.85 376.34-16.85 376.34-16.65L376.34-16.65Q376.34-15.7 375.04-15.65L375.04-15.65 365.64-15.25Q363.19-12.95 359.59-10.4L359.59-10.4Q355.79-4.15 355.79-1.9L355.79-1.9Q355.79-0.75 357.27-0.75 358.74-0.75 361.94-2.35L361.94-2.35 365.99-4.7Q366.04-4.6 366.04-4.3 366.04-4 365.59-3.8L365.59-3.8Q363.99-2.7 362.09-1.6L362.09-1.6Q358.04 0.45 355.89 0.45L355.89 0.45Q354.89 0.45 354.34 0.05 353.79-0.35 353.74-0.75L353.74-0.75 353.64-1.15Q353.64-2.85 355.94-6.88 358.24-10.9 361.39-15.1L361.39-15.1Q358.99-15 356.84-15 354.69-15 354.69-15.5L354.69-15.5Q354.69-16.45 355.84-16.5ZM368.99-21.6L368.99-21.6Q368.99-21.85 368.79-21.85L368.79-21.85Q367.64-21.85 363.69-16.6L363.69-16.6 366.19-16.6Q368.99-19.65 368.99-21.6ZM364.79-15.2L364.79-15.2Q363.19-15.2 362.64-15.15L362.64-15.15Q362.19-14.5 361.39-13.25 360.59-12 360.29-11.55L360.29-11.55Q362.89-13.45 364.79-15.2Z" opacity="1" transform="matrix(1,0,0,1,0,0)" fill="black" class="slogan-text-1" id="SvgjsPath3075" stroke-width="7" stroke="black" stroke-linejoin="round"></path></svg></g></svg></g></svg></g></svg></g><g></g></svg></g></svg></g></svg></g></mask><g transform="matrix(1,0,0,1,39.55199999999999,41.51420378437098)"><svg viewBox="0 0 316.416 164.17159243125803" height="164.17159243125803" width="316.416"><g><svg viewBox="0 0 316.416 164.17159243125803" height="164.17159243125803" width="316.416"><g><svg viewBox="0 0 316.416 164.17159243125803" height="164.17159243125803" width="316.416"><g><svg viewBox="0 0 316.416 164.17159243125803" height="164.17159243125803" width="316.416"><g id="textblocktransform"><svg viewBox="0 0 316.416 164.17159243125803" height="164.17159243125803" width="316.416" id="textblock"><g><svg viewBox="0 0 316.416 96.12876099881095" height="96.12876099881095" width="316.416"><g transform="matrix(1,0,0,1,0,0)"><svg width="316.416" viewBox="-1.2799999999999998 -34.96 135.55 41.88" height="96.12876099881095" data-palette-color="#fbfbf8"><path d="M22.56-18.72L22.56-18.72Q22.56-26.04 19.24-26.04L19.24-26.04Q19.24-26.32 19.52-26.56L19.52-26.56Q20.04-27 20.8-27L20.8-27Q23.48-27 24.32-22.84L24.32-22.84Q24.68-21.16 24.68-19.28L24.68-19.28Q24.68-15.72 23.44-11.36L23.44-11.36Q21.36-3.88 17.16-0.2L17.16-0.2Q14.28 2.32 10.96 2.32L10.96 2.32Q5.56 2.32 3.64-3.16L3.64-3.16Q2.72-5.72 2.72-8.84 2.72-11.96 3.6-15.6L3.6-15.6Q5.4-22.84 9.48-27.2L9.48-27.2Q13-30.96 17.04-30.96L17.04-30.96Q18.16-30.96 18.76-30.46 19.36-29.96 19.36-29.44L19.36-29.44 19.4-28.96Q19-29.12 17.92-29.12L17.92-29.12Q13.6-29.12 10.26-23.6 6.92-18.08 6.16-11.16L6.16-11.16Q5.96-9.4 5.96-7.92L5.96-7.92Q5.96-3.36 7.76-0.92L7.76-0.92Q9.2 0.96 11.52 0.96L11.52 0.96Q16.36 0.96 19.46-5.66 22.56-12.28 22.56-18.72ZM49.04-18.12L49.04-18.12Q50.2-17.24 51.26-17.24 52.32-17.24 52.76-17.52L52.76-17.52Q52.76-17 52.3-16.54 51.84-16.08 50.98-16.08 50.12-16.08 49.12-16.48L49.12-16.48Q49.04-12.72 47.88-8.78 46.72-4.84 44.88-2.18 43.04 0.48 41.24 0.48 39.44 0.48 38.48-0.92L38.48-0.92Q37.48-2.48 37.48-5.36L37.48-5.36Q37.48-7 37.68-8.88L37.68-8.88Q32.72 0 30.06 0 27.4 0 27.4-4.48L27.4-4.48Q27.4-9.12 29.68-14.4L29.68-14.4Q31.6-18.6 33.2-18.8L33.2-18.8Q33.96-18.8 33.96-17.96L33.96-17.96Q33.48-16.8 32.76-14.98 32.04-13.16 30.86-9.16 29.68-5.16 29.68-3.26 29.68-1.36 30.52-1.36L30.52-1.36Q31.56-1.36 33.78-4.72 36-8.08 37.68-11.44L37.68-11.44 39.4-14.76Q40.52-17 41.4-17 42.28-17 42.28-16.16L42.28-16.16Q39.84-7.8 39.84-3.08L39.84-3.08Q39.84-0.88 41.12-0.88L41.12-0.88Q42.56-0.88 44.14-3.26 45.72-5.64 46.78-9.46 47.84-13.28 47.84-17L47.84-17 47.84-17.24Q46.68-18.08 45.96-19.24 45.24-20.4 45.24-20.98 45.24-21.56 45.76-22.04 46.28-22.52 46.88-22.52L46.88-22.52Q47.64-22.52 48.24-21.18 48.84-19.84 49.04-18.12ZM55.23-6.48L55.59-6.48Q60.76-19.24 65.64-19.24L65.64-19.24Q67.67-19.24 67.67-17.28L67.67-17.28Q67.39-16.36 66.95-14.86 66.52-13.36 65.78-9.48 65.03-5.6 65.03-2.68L65.03-2.68Q65.03 1.56 66.28 1.56L66.28 1.56Q66.75 1.56 67.19 1.18 67.64 0.8 67.8 0.8L67.8 0.8Q68.36 0.8 67.8 1.68L67.8 1.68Q67.59 1.96 67.06 2.44 66.52 2.92 65.95 2.92L65.95 2.92Q64.44 2.92 63.58 0.74 62.72-1.44 62.72-4.92L62.72-4.92Q62.72-10.44 64.44-17.04L64.44-17.04Q64.59-17.56 64.11-17.56L64.11-17.56Q63.8-17.56 63.4-17.24L63.4-17.24Q61.48-15.56 59.36-11.68 57.23-7.8 56.04-4.74 54.84-1.68 54.84-1.18 54.84-0.68 54.27-0.68L54.27-0.68Q52.99-0.68 52.99-3.84L52.99-3.84Q52.99-9.8 54.22-14.64 55.44-19.48 57.16-19.48L57.16-19.48Q57.88-19.48 57.88-18.6L57.88-18.6Q56.04-12.64 55.23-6.48L55.23-6.48ZM73.15-6.48L73.51-6.48Q78.67-19.24 83.55-19.24L83.55-19.24Q85.59-19.24 85.59-17.28L85.59-17.28Q85.31-16.36 84.87-14.86 84.43-13.36 83.69-9.48 82.95-5.6 82.95-2.68L82.95-2.68Q82.95 1.56 84.19 1.56L84.19 1.56Q84.67 1.56 85.11 1.18 85.55 0.8 85.71 0.8L85.71 0.8Q86.27 0.8 85.71 1.68L85.71 1.68Q85.51 1.96 84.97 2.44 84.43 2.92 83.87 2.92L83.87 2.92Q82.35 2.92 81.49 0.74 80.63-1.44 80.63-4.92L80.63-4.92Q80.63-10.44 82.35-17.04L82.35-17.04Q82.51-17.56 82.03-17.56L82.03-17.56Q81.71-17.56 81.31-17.24L81.31-17.24Q79.39-15.56 77.27-11.68 75.15-7.8 73.95-4.74 72.75-1.68 72.75-1.18 72.75-0.68 72.19-0.68L72.19-0.68Q70.91-0.68 70.91-3.84L70.91-3.84Q70.91-9.8 72.13-14.64 73.35-19.48 75.07-19.48L75.07-19.48Q75.79-19.48 75.79-18.6L75.79-18.6Q73.95-12.64 73.15-6.48L73.15-6.48ZM93.23 0.36L93.23 0.36Q88.31 0.36 88.31-6.4L88.31-6.4Q88.31-10.2 90.23-14L90.23-14Q92.67-18.8 96.03-18.8L96.03-18.8Q96.51-18.8 96.83-18.56 97.15-18.32 97.27-17.84L97.27-17.84Q94.75-17.84 92.91-13.8 91.07-9.76 91.07-5.84L91.07-5.84Q91.07-1.08 93.67-1.08L93.67-1.08Q95.15-1.08 96.75-3.34 98.35-5.6 99.41-9.28 100.47-12.96 100.47-16.68L100.47-16.68 100.47-17.16Q99.23-17.96 98.43-19.16 97.63-20.36 97.63-20.92 97.63-21.48 98.13-21.98 98.63-22.48 99.15-22.48L99.15-22.48Q99.91-22.48 100.63-21.12 101.35-19.76 101.63-18.04L101.63-18.04Q102.87-17.2 103.81-17.2 104.75-17.2 105.31-17.52L105.31-17.52Q105.31-16.96 104.91-16.52 104.51-16.08 103.67-16.08 102.83-16.08 101.75-16.48L101.75-16.48Q101.71-12.64 100.59-8.76 99.47-4.88 97.47-2.26 95.47 0.36 93.23 0.36ZM126.55-18.12L126.55-18.12Q127.71-17.24 128.77-17.24 129.83-17.24 130.27-17.52L130.27-17.52Q130.27-17 129.81-16.54 129.35-16.08 128.49-16.08 127.63-16.08 126.63-16.48L126.63-16.48Q126.55-12.72 125.39-8.78 124.23-4.84 122.39-2.18 120.55 0.48 118.75 0.48 116.95 0.48 115.99-0.92L115.99-0.92Q114.99-2.48 114.99-5.36L114.99-5.36Q114.99-7 115.19-8.88L115.19-8.88Q110.23 0 107.57 0 104.91 0 104.91-4.48L104.91-4.48Q104.91-9.12 107.19-14.4L107.19-14.4Q109.11-18.6 110.71-18.8L110.71-18.8Q111.47-18.8 111.47-17.96L111.47-17.96Q110.99-16.8 110.27-14.98 109.55-13.16 108.37-9.16 107.19-5.16 107.19-3.26 107.19-1.36 108.03-1.36L108.03-1.36Q109.07-1.36 111.29-4.72 113.51-8.08 115.19-11.44L115.19-11.44 116.91-14.76Q118.03-17 118.91-17 119.79-17 119.79-16.16L119.79-16.16Q117.35-7.8 117.35-3.08L117.35-3.08Q117.35-0.88 118.63-0.88L118.63-0.88Q120.07-0.88 121.65-3.26 123.23-5.64 124.29-9.46 125.35-13.28 125.35-17L125.35-17 125.35-17.24Q124.19-18.08 123.47-19.24 122.75-20.4 122.75-20.98 122.75-21.56 123.27-22.04 123.79-22.52 124.39-22.52L124.39-22.52Q125.15-22.52 125.75-21.18 126.35-19.84 126.55-18.12Z" opacity="1" transform="matrix(1,0,0,1,0,0)" fill="#000000" class="wordmark-text-0" data-fill-palette-color="primary" id="text-0"></path></svg></g></svg></g><g transform="matrix(1,0,0,1,3.5,114.936547979415)"><svg viewBox="0 0 309.416 49.23504445184305" height="49.23504445184305" width="309.416"><g transform="matrix(1,0,0,1,0,0)"><svg width="309.416" viewBox="-4.3 -41.95 384.64 61.800000000000004" height="49.23504445184305" data-palette-color="#fbfbf8"><path d="M23.55-13.65L23.55-13.65Q19.2-8.8 14.85-5.5L14.85-5.5Q12.7-3.9 9.9-2.55 7.1-1.2 4.85-1.2L4.85-1.2Q-0.3-1.2-0.3-6.05L-0.3-6.05Q-0.3-10.6 1.9-15.33 4.1-20.05 7.53-23.75 10.95-27.45 14.9-30.43 18.85-33.4 22.53-35 26.2-36.6 28.7-36.6L28.7-36.6Q31.95-36.6 32.1-33.75L32.1-33.75Q33.85-34.5 34.75-34.5L34.75-34.5Q35.35-34.35 35.35-33.95 35.35-33.55 35.1-33.2 34.85-32.85 34.25-32.85 33.65-32.85 31.95-32.25L31.95-32.25Q31.25-28.25 27.25-24.7 23.25-21.15 20.7-21.15L20.7-21.15Q19.4-21.15 19.4-22.35L19.4-22.35Q19.4-24.65 23.05-27.88 26.7-31.1 30.8-33.15L30.8-33.15 30.8-33.2Q30.8-35.45 28.15-35.45L28.15-35.45Q26-35.45 22.7-33.98 19.4-32.5 15.83-29.73 12.25-26.95 9.13-23.48 6-20 3.98-15.48 1.95-10.95 1.95-6.5L1.95-6.5Q1.95-2.65 5.6-2.65L5.6-2.65Q13.55-2.65 27.4-19.2L27.4-19.2Q28.25-20.2 28.9-20.2 29.55-20.2 29.55-20.08 29.55-19.95 29.25-19.38 28.95-18.8 25.83-13.8 22.7-8.8 19.1-3.05L19.1-3.05Q9.8 11.95 9 13.15L9 13.15Q8.85 13.45 8.85 13.65 8.85 13.85 9.3 13.85L9.3 13.85 10.55 13.75Q10.95 13.75 10.95 13.9L10.95 13.9Q10.95 14.15 9.5 15 8.05 15.85 7.45 15.85 6.85 15.85 6.85 15.1 6.85 14.35 7.38 12.88 7.9 11.4 12.03 4.93 16.15-1.55 19.93-7.33 23.7-13.1 23.7-13.38 23.7-13.65 23.55-13.65ZM22-22.5L22-22.5Q23.85-22.5 26.9-25.35 29.95-28.2 30.65-31.7L30.65-31.7Q27.2-30.1 24.23-27.55 21.25-25 21.25-23.2L21.25-23.2Q21.25-22.5 22-22.5ZM38.61-4.85L38.61-4.85Q35.61-4.85 35.61-6.15L35.61-6.15Q35.61-7.7 39.16-9.83 42.71-11.95 45.56-11.95L45.56-11.95Q47.01-11.95 47.01-11.05L47.01-11.05Q47.01-10.55 46.26-9.95 45.51-9.35 44.81-9 44.11-8.65 44.01-8.65L44.01-8.65Q43.71-8.65 43.61-8.9L43.61-8.9Q43.51-9.25 44.14-9.63 44.76-10 44.76-10.45 44.76-10.9 43.64-10.9 42.51-10.9 40.11-9.33 37.71-7.75 37.71-6.75L37.71-6.75Q37.71-6 39.46-6L39.46-6Q39.76-6 40.56-6.05 41.36-6.1 41.36-5.85 41.36-5.6 38.89-4.05 36.41-2.5 36.41-1.4L36.41-1.4Q36.41-0.15 38.04-0.15 39.66-0.15 41.71-1L41.71-1Q45.01-2.45 47.71-4.1L47.71-4.1 48.66-4.7Q48.71-4.6 48.71-4.3 48.71-4 48.26-3.8L48.26-3.8Q45.61-2 42.46-0.38 39.31 1.25 36.79 1.25 34.26 1.25 34.26-0.43 34.26-2.1 38.61-4.85ZM59.38-16.5L59.38-16.5Q62.78-16.5 66.08-16.55L66.08-16.55Q71.43-23.4 73.38-23.4L73.38-23.4Q74.08-23.4 74.08-22.65L74.08-22.65Q74.08-20.25 70.58-16.65L70.58-16.65 74.38-16.7Q78.18-16.85 79.03-16.85 79.88-16.85 79.88-16.65L79.88-16.65Q79.88-15.7 78.58-15.65L78.58-15.65 69.18-15.25Q66.73-12.95 63.13-10.4L63.13-10.4Q59.33-4.15 59.33-1.9L59.33-1.9Q59.33-0.75 60.8-0.75 62.28-0.75 65.48-2.35L65.48-2.35 69.53-4.7Q69.58-4.6 69.58-4.3 69.58-4 69.13-3.8L69.13-3.8Q67.53-2.7 65.63-1.6L65.63-1.6Q61.58 0.45 59.43 0.45L59.43 0.45Q58.43 0.45 57.88 0.05 57.33-0.35 57.28-0.75L57.28-0.75 57.18-1.15Q57.18-2.85 59.48-6.88 61.78-10.9 64.93-15.1L64.93-15.1Q62.53-15 60.38-15 58.23-15 58.23-15.5L58.23-15.5Q58.23-16.45 59.38-16.5ZM72.53-21.6L72.53-21.6Q72.53-21.85 72.33-21.85L72.33-21.85Q71.18-21.85 67.23-16.6L67.23-16.6 69.73-16.6Q72.53-19.65 72.53-21.6ZM68.33-15.2L68.33-15.2Q66.73-15.2 66.18-15.15L66.18-15.15Q65.73-14.5 64.93-13.25 64.13-12 63.83-11.55L63.83-11.55Q66.43-13.45 68.33-15.2ZM96.66 0.65L96.51-0.05Q96.51-2.65 100.48-5.3 104.46-7.95 110.28-9.58 116.11-11.2 121.51-11.2L121.51-11.2Q122.86-11.2 124.46-11.05L124.46-11.05Q135.46-21.35 135.46-32.3L135.46-32.3Q135.46-35.25 133.51-35.25L133.51-35.25Q132.31-35.25 130.76-34.02 129.21-32.8 127.78-30.8 126.36-28.8 125.38-25.85 124.41-22.9 124.41-19.63 124.41-16.35 125.31-15.8L125.31-15.8Q125.56-15.65 125.56-15.45L125.56-15.45Q125.16-14.6 124.43-14.6 123.71-14.6 123.28-15.03 122.86-15.45 122.86-16.25L122.86-16.25Q122.86-20.65 124.13-24.83 125.41-29 127.26-31.78 129.11-34.55 131.16-36.25 133.21-37.95 134.81-37.95L134.81-37.95Q137.51-37.95 137.51-33.7L137.51-33.7Q137.51-21.45 126.01-10.85L126.01-10.85Q131.36-9.9 131.36-7.1L131.36-7.1Q131.36-6.1 130.08-5.03 128.81-3.95 128.03-3.9 127.26-3.85 127.21-4.05L127.21-4.05Q127.21-4.2 127.76-4.55L127.76-4.55Q129.86-5.85 129.86-6.75L129.86-6.75Q129.86-8.8 124.21-9.25L124.21-9.25Q117.96-3.95 110.71-0.6 103.46 2.75 100.26 2.75L100.26 2.75Q98.66 2.75 97.73 2.05 96.81 1.35 96.66 0.65L96.66 0.65ZM121.16-9.4L121.16-9.4Q116.21-9.4 110.98-8.2 105.76-7 102.13-4.95 98.51-2.9 98.46-0.75L98.46-0.75Q98.61 1.1 101.26 1.1L101.26 1.1Q104.81 1.1 110.91-1.8 117.01-4.7 122.56-9.35L122.56-9.35Q122.06-9.4 121.16-9.4ZM143.32-16.5L143.32-16.5Q146.72-16.5 150.02-16.55L150.02-16.55Q155.37-23.4 157.32-23.4L157.32-23.4Q158.02-23.4 158.02-22.65L158.02-22.65Q158.02-20.25 154.52-16.65L154.52-16.65 158.32-16.7Q162.12-16.85 162.97-16.85 163.82-16.85 163.82-16.65L163.82-16.65Q163.82-15.7 162.52-15.65L162.52-15.65 153.12-15.25Q150.67-12.95 147.07-10.4L147.07-10.4Q143.27-4.15 143.27-1.9L143.27-1.9Q143.27-0.75 144.75-0.75 146.22-0.75 149.42-2.35L149.42-2.35 153.47-4.7Q153.52-4.6 153.52-4.3 153.52-4 153.07-3.8L153.07-3.8Q151.47-2.7 149.57-1.6L149.57-1.6Q145.52 0.45 143.37 0.45L143.37 0.45Q142.37 0.45 141.82 0.05 141.27-0.35 141.22-0.75L141.22-0.75 141.12-1.15Q141.12-2.85 143.42-6.88 145.72-10.9 148.87-15.1L148.87-15.1Q146.47-15 144.32-15 142.17-15 142.17-15.5L142.17-15.5Q142.17-16.45 143.32-16.5ZM156.47-21.6L156.47-21.6Q156.47-21.85 156.27-21.85L156.27-21.85Q155.12-21.85 151.17-16.6L151.17-16.6 153.67-16.6Q156.47-19.65 156.47-21.6ZM152.27-15.2L152.27-15.2Q150.67-15.2 150.12-15.15L150.12-15.15Q149.67-14.5 148.87-13.25 148.07-12 147.77-11.55L147.77-11.55Q150.37-13.45 152.27-15.2ZM166.39 0.7L166.39 0.7 166.04-0.85Q166.04-1.3 166.34-1.63 166.64-1.95 167.09-1.95 167.54-1.95 167.89-1.63 168.24-1.3 168.29-0.6L168.29-0.6Q168.14 0.75 167.49 1.8 166.84 2.85 166.04 3.4L166.04 3.4Q164.29 4.45 162.94 4.7L162.94 4.7 162.39 4.8Q162.14 4.8 162.14 4.5L162.14 4.5Q162.14 4.4 163.21 4.03 164.29 3.65 165.34 2.8 166.39 1.95 166.39 0.7ZM224.57-35.2L224.57-35.2Q224.82-35.2 224.92-34.9L224.92-34.9Q224.92-34.5 224.32-34.4L224.32-34.4Q221.52-33.45 218.34-30.95 215.17-28.45 212.34-24.93 209.52-21.4 207.64-16.6 205.77-11.8 205.77-6.9L205.77-6.9Q205.77-0.25 210.47-0.25L210.47-0.25Q213.22-0.25 216.89-2.68 220.57-5.1 223.79-8.78 227.02-12.45 229.27-17.4 231.52-22.35 231.52-26.93 231.52-31.5 228.37-31.5L228.37-31.5Q225.82-31.5 222.37-28.78 218.92-26.05 216.34-21.88 213.77-17.7 213.77-14.03 213.77-10.35 216.32-10.35L216.32-10.35Q217.92-10.35 219.94-11.88 221.97-13.4 223.57-15.95L223.57-15.95Q223.77-16.35 224.04-16.35 224.32-16.35 224.32-16.05L224.32-16.05Q224.32-14.65 220.84-11.65 217.37-8.65 214.87-8.65L214.87-8.65Q211.92-8.65 211.92-13.4L211.92-13.4Q211.92-17.1 215.02-21.83 218.12-26.55 222.32-29.8 226.52-33.05 229.57-33.05L229.57-33.05Q233.57-33.05 233.57-27.1L233.57-27.1Q233.57-22.6 230.97-17.43 228.37-12.25 224.64-8.22 220.92-4.2 216.67-1.5 212.42 1.2 209.22 1.2L209.22 1.2Q203.67 1.2 203.67-6.7L203.67-6.7Q203.67-11.5 205.57-16.18 207.47-20.85 210.19-24.15 212.92-27.45 215.94-30.05 218.97-32.65 221.29-33.93 223.62-35.2 224.57-35.2ZM237.73-8.6L237.73-8.6 236.18-7.95Q236.08-7.95 236.08-8.1L236.08-8.1Q236.08-8.55 237.21-9.2 238.33-9.85 239.06-9.85 239.78-9.85 239.78-8.85L239.78-8.85Q239.78-7.15 238.68-2.95L238.68-2.95Q238.73-2.9 238.78-2.9L238.78-2.9Q243.13-6.45 244.58-7.9 246.03-9.35 246.56-9.35 247.08-9.35 247.08-8.8 247.08-8.25 245.93-4.93 244.78-1.6 244.78-1.15L244.78-1.15 245.53-1.8Q247.78-3.85 249.88-6.05L249.88-6.05Q248.78-6.2 248.78-7.3L248.78-7.3Q248.78-9.1 250.81-10.98 252.83-12.85 254.13-12.85L254.13-12.85Q254.78-12.85 254.78-12.2L254.78-12.2Q254.78-10.6 251.53-6.9L251.53-6.9 251.88-6.9Q252.93-6.9 255.68-8.8L255.68-8.8 256.58-9.45Q256.68-9.45 256.68-9.2 256.68-8.95 256.43-8.75L256.43-8.75Q253.33-6.25 250.73-6L250.73-6Q248.38-3.45 245.78-1.28 243.18 0.9 242.61 0.9 242.03 0.9 242.03 0.4L242.03 0.4Q242.03 0.2 242.23-0.23 242.43-0.65 243.28-3.35 244.13-6.05 244.11-6.18 244.08-6.3 244.03-6.3L244.03-6.3Q243.88-6.3 243.63-6.05L243.63-6.05 237.18-0.7Q236.13 0.3 235.68 0.3L235.68 0.3Q235.23 0.15 235.23-0.03 235.23-0.2 235.63-0.98 236.03-1.75 236.96-4.48 237.88-7.2 237.88-7.9 237.88-8.6 237.73-8.6ZM253.08-11.05L253.08-11.05Q253.08-11.35 252.58-11.35 252.08-11.35 251.08-10.28 250.08-9.2 250.08-7.9L250.08-7.9Q250.08-7.25 250.83-7.05L250.83-7.05Q253.08-9.75 253.08-11.05ZM262.9-3.8L262.9-3.8Q263.85-4.35 265.4-5.55L265.4-5.55Q269.2-8.55 269.45-8.55L269.45-8.55Q270.2-8.55 270.2-7.9 270.2-7.25 269.42-5.9 268.65-4.55 267.67-3.1 266.7-1.65 266.55-1.35L266.55-1.35Q266.6-1.3 266.77-1.3 266.95-1.3 268.75-2.63 270.55-3.95 272.5-5.43 274.45-6.9 274.8-7.13 275.15-7.35 275.45-7.35L275.45-7.35Q276.05-7.3 276.05-6.65L276.05-6.65Q276.05-6.4 274.35-4.13 272.65-1.85 272.65-1.2L272.65-1.2Q272.65-0.75 273.72-0.75 274.8-0.75 276.9-1.73 279-2.7 280.6-3.7L280.6-3.7 282.2-4.7Q282.25-4.6 282.25-4.3 282.25-4 281.8-3.8L281.8-3.8Q275.05 0.8 272.4 0.8L272.4 0.8Q270.85 0.8 270.85-0.4L270.85-0.4Q270.85-1.55 271.52-2.6 272.2-3.65 272.7-4.38 273.2-5.1 273.2-5.15L273.2-5.15Q270.9-3.5 267.75-1.2 264.6 1.1 264.2 1.1L264.2 1.1Q263.9 1.1 263.9 0.4 263.9-0.3 265.87-3.25 267.85-6.2 267.85-6.4 267.85-6.6 267.75-6.6L267.75-6.6 267.25-6.35 264.75-4.35Q264.5-4.15 263.8-3.7 263.1-3.25 262.92-3.25 262.75-3.25 262.75-3.48 262.75-3.7 262.9-3.8ZM309.18 0.65L309.03-0.05Q309.03-2.65 313-5.3 316.98-7.95 322.8-9.58 328.63-11.2 334.03-11.2L334.03-11.2Q335.38-11.2 336.98-11.05L336.98-11.05Q347.98-21.35 347.98-32.3L347.98-32.3Q347.98-35.25 346.03-35.25L346.03-35.25Q344.83-35.25 343.28-34.02 341.73-32.8 340.3-30.8 338.88-28.8 337.9-25.85 336.93-22.9 336.93-19.63 336.93-16.35 337.83-15.8L337.83-15.8Q338.08-15.65 338.08-15.45L338.08-15.45Q337.68-14.6 336.95-14.6 336.23-14.6 335.8-15.03 335.38-15.45 335.38-16.25L335.38-16.25Q335.38-20.65 336.65-24.83 337.93-29 339.78-31.78 341.63-34.55 343.68-36.25 345.73-37.95 347.33-37.95L347.33-37.95Q350.03-37.95 350.03-33.7L350.03-33.7Q350.03-21.45 338.53-10.85L338.53-10.85Q343.88-9.9 343.88-7.1L343.88-7.1Q343.88-6.1 342.6-5.03 341.33-3.95 340.55-3.9 339.78-3.85 339.73-4.05L339.73-4.05Q339.73-4.2 340.28-4.55L340.28-4.55Q342.38-5.85 342.38-6.75L342.38-6.75Q342.38-8.8 336.73-9.25L336.73-9.25Q330.48-3.95 323.23-0.6 315.98 2.75 312.78 2.75L312.78 2.75Q311.18 2.75 310.25 2.05 309.33 1.35 309.18 0.65L309.18 0.65ZM333.68-9.4L333.68-9.4Q328.73-9.4 323.5-8.2 318.28-7 314.65-4.95 311.03-2.9 310.98-0.75L310.98-0.75Q311.13 1.1 313.78 1.1L313.78 1.1Q317.33 1.1 323.43-1.8 329.53-4.7 335.08-9.35L335.08-9.35Q334.58-9.4 333.68-9.4ZM355.84-16.5L355.84-16.5Q359.24-16.5 362.54-16.55L362.54-16.55Q367.89-23.4 369.84-23.4L369.84-23.4Q370.54-23.4 370.54-22.65L370.54-22.65Q370.54-20.25 367.04-16.65L367.04-16.65 370.84-16.7Q374.64-16.85 375.49-16.85 376.34-16.85 376.34-16.65L376.34-16.65Q376.34-15.7 375.04-15.65L375.04-15.65 365.64-15.25Q363.19-12.95 359.59-10.4L359.59-10.4Q355.79-4.15 355.79-1.9L355.79-1.9Q355.79-0.75 357.27-0.75 358.74-0.75 361.94-2.35L361.94-2.35 365.99-4.7Q366.04-4.6 366.04-4.3 366.04-4 365.59-3.8L365.59-3.8Q363.99-2.7 362.09-1.6L362.09-1.6Q358.04 0.45 355.89 0.45L355.89 0.45Q354.89 0.45 354.34 0.05 353.79-0.35 353.74-0.75L353.74-0.75 353.64-1.15Q353.64-2.85 355.94-6.88 358.24-10.9 361.39-15.1L361.39-15.1Q358.99-15 356.84-15 354.69-15 354.69-15.5L354.69-15.5Q354.69-16.45 355.84-16.5ZM368.99-21.6L368.99-21.6Q368.99-21.85 368.79-21.85L368.79-21.85Q367.64-21.85 363.69-16.6L363.69-16.6 366.19-16.6Q368.99-19.65 368.99-21.6ZM364.79-15.2L364.79-15.2Q363.19-15.2 362.64-15.15L362.64-15.15Q362.19-14.5 361.39-13.25 360.59-12 360.29-11.55L360.29-11.55Q362.89-13.45 364.79-15.2Z" opacity="1" transform="matrix(1,0,0,1,0,0)" fill="#000000" class="slogan-text-1" data-fill-palette-color="secondary" id="text-1"></path></svg></g></svg></g></svg></g></svg></g><g></g></svg></g></svg></g></svg></g><g mask="url(#2e25bf8a-e5c5-4386-a30b-24dffc5954bb)"><g transform="matrix(1.340454726852282, 0, 0, 1.340454726852282, 105.17479201631286, 1.0000000000000142)"><svg xmlns="http://www.w3.org/2000/svg" xmlns:xlink="http://www.w3.org/1999/xlink" version="1.1" x="0" y="0" viewBox="72.66 22.697999999999993 138.14000000000001 182.923" enable-background="new 0 0 283.46 283.46" xml:space="preserve" height="182.923" width="138.14000000000001" class="icon-none" data-fill-palette-color="accent" id="none"><path fill="none" stroke="#FFFFFF" stroke-miterlimit="10" d="M171 57.116h31.295l8.505 140-5.283 8.505H78.185l-5.525-8.505 8.503-140h31.521M165.907 79.955c-3.553 1.256-6.657 4.57-6.657 8.46 0 4.971 4.142 9 9.25 9s9.25-4.029 9.25-9c0-4.248-3.023-7.808-7.091-8.753M112.657 80.04c-3.553 1.256-6.657 4.57-6.657 8.46 0 4.971 4.142 9 9.25 9s9.25-4.029 9.25-9c0-4.248-3.024-7.808-7.091-8.753M117.1 57.116h48.583M170.695 87.351c0-0.41 0.004-27.57-0.02-27.98-1.546-26.803-13.312-36.673-28.946-36.673-15.589 0-29.441 8.042-28.939 36.517 0.008 0.464-0.025 26.824-0.025 27.285M165.733 86.781c0-0.356 0.003-26.935-0.017-27.292-1.3-23.322-11.195-31.911-24.337-31.911-13.11 0-24.76 6.998-24.338 31.775 0.007 0.404-0.021 27.029-0.021 27.43M112.75 86.184c0 1.151 0.933 2.083 2.083 2.083 1.151 0 2.167-0.369 2.167-1.721M165.667 86.392c0 1.349 1.098 2.442 2.45 2.442 1.354 0 2.55-0.433 2.55-2.017M187.334 120.334c0-5.5-4.5-10-10.001-10h-68.666c-5.5 0-10 4.5-10 10v49.998c0 5.501 4.5 10.001 10 10.001h68.666c5.501 0 10.001-4.5 10.001-10.001V120.334zM187.334 120.334c0-5.5-4.5-10-10.001-10h-68.666c-5.5 0-10 4.5-10 10v49.998c0 5.501 4.5 10.001 10 10.001h68.666c5.501 0 10.001-4.5 10.001-10.001V120.334zM111.57 110.33l-12.9 13.01M119.05 110.33l-20.38 20.53M126.54 110.33l-27.87 28.03M134.03 110.33l-35.36 35.52M141.54 110.33l-42.87 42.99M149.05 110.33l-50.38 50.45M156.56 110.33l-57.89 57.89M164.08 110.33l-64.42 64.33M171.61 110.33l-68.49 68.3M179 110.47l-70.16 69.86M184.05 112.95l-67.76 67.38M186.94 117.57l-63.2 62.76M131.2 180.33l56.13-55.66M187.33 132.13l-48.67 48.2M187.33 139.59l-41.2 40.74M187.33 147.02L153.6 180.33M187.33 154.45l-26.24 25.88M187.33 161.86l-18.76 18.47M187.33 169.26l-11.26 11.07"></path></svg></g></g></svg></g><defs></defs></svg><rect width="395.52" height="247.2" fill="none" stroke="none" visibility="hidden"></rect></g></svg></g></svg>